<svg width="142" height="142" viewBox="0 0 142 142" fill="none" xmlns="http://www.w3.org/2000/svg">
<path d="M67.2376 77.279C69.8476 73.9263 73.3225 71.3488 77.2883 69.8241C81.2542 68.2993 85.5607 67.8849 89.7446 68.6256C90.7413 68.8016 91.7245 69.0474 92.6868 69.3611C91.9441 64.6459 89.7814 60.2692 86.4873 56.8148C83.1932 53.3603 78.9241 50.9922 74.2495 50.0264C64.7838 48.1094 54.8608 52.5398 49.8823 60.7758C47.9394 64.0328 46.811 67.7106 46.5929 71.4968C46.3749 75.283 47.0737 79.066 48.6299 82.5245C48.7634 82.3939 48.8968 82.2632 49.0332 82.1354C51.4364 79.8948 54.3539 78.2798 57.5286 77.4329C60.7033 76.5859 64.0376 76.5331 67.2376 77.279Z" fill="#FAF089" stroke="#171923" stroke-width="0.284" stroke-miterlimit="10"/>
<path d="M48.63 82.5249C47.0738 79.0663 46.3751 75.2834 46.5931 71.4971C46.8111 67.7109 47.9395 64.0332 49.8825 60.7761C54.8638 52.5543 64.7868 48.1097 74.2383 50.0239C78.9129 50.9897 83.1819 53.3578 86.4761 56.8123C89.7702 60.2668 91.9329 64.6434 92.6756 69.3586C94.2463 69.87 95.7552 70.5549 97.1741 71.4006C96.8522 66.0042 94.9657 60.8183 91.745 56.4765C88.5243 52.1346 84.1088 48.8247 79.0379 46.951C68.3339 43.0262 55.7783 46.4909 48.5732 55.3091C41.4732 63.9995 40.2634 76.4103 45.7332 86.2083C46.5452 84.8671 47.518 83.6301 48.63 82.5249Z" fill="#171923" stroke="#171923" stroke-width="0.284" stroke-miterlimit="10"/>
<path d="M71.8724 37.3573V27.8007C71.8724 25.0601 67.6124 25.0545 67.6124 27.8007V37.3573C67.6124 40.0979 71.8724 40.1036 71.8724 37.3573Z" fill="#171923" stroke="#171923" stroke-width="0.284" stroke-miterlimit="10"/>
<path d="M50.1719 43.1822C51.5436 45.5564 55.2243 43.4122 53.8639 41.0323L49.0842 32.7537C47.7125 30.3795 44.0318 32.5237 45.3922 34.9036L50.1719 43.1822Z" fill="#171923"/>
<path d="M52.0122 42.1058L47.2325 33.8272M50.1719 43.1822C51.5436 45.5564 55.2243 43.4122 53.8639 41.0323L49.0842 32.7537C47.7125 30.3795 44.0318 32.5237 45.3922 34.9036L50.1719 43.1822Z" stroke="#171923" stroke-width="0.284" stroke-miterlimit="10"/>
<path d="M40.1071 53.247L31.8285 48.4673C29.4514 47.0927 27.3015 50.7734 29.6786 52.1593L37.9572 56.939C40.3286 58.2994 42.4842 54.6187 40.1071 53.247Z" fill="#171923"/>
<path d="M30.755 50.3076L39.0336 55.0958M40.1071 53.247L31.8285 48.4673C29.4514 47.0927 27.3015 50.7734 29.6786 52.1593L37.9572 56.939C40.3286 58.2994 42.4842 54.6187 40.1071 53.247Z" stroke="#171923" stroke-width="0.284" stroke-miterlimit="10"/>
<path d="M24.7256 74.9475H34.2822C37.0228 74.9475 37.0285 70.6875 34.2822 70.6875H24.7256C21.9822 70.6875 21.9794 74.9475 24.7256 74.9475Z" fill="#171923" stroke="#171923" stroke-width="0.284" stroke-miterlimit="10"/>
<path d="M31.8313 97.1649L40.1099 92.3852C42.4841 91.0135 40.3399 87.3329 37.96 88.6932L29.6814 93.4729C27.3072 94.856 29.4485 98.548 31.8313 97.1649Z" fill="#171923"/>
<path d="M39.0335 90.5477L30.7549 95.3275M31.8313 97.1649L40.1099 92.3852C42.4841 91.0135 40.3399 87.3329 37.96 88.6932L29.6814 93.4729C27.3072 94.856 29.4485 98.548 31.8313 97.1649Z" stroke="#171923" stroke-width="0.284" stroke-miterlimit="10"/>
<path d="M105.2 74.9475H114.757C117.497 74.9475 117.503 70.6875 114.757 70.6875H105.2C102.459 70.6875 102.454 74.9475 105.2 74.9475Z" fill="#171923" stroke="#171923" stroke-width="0.284" stroke-miterlimit="10"/>
<path d="M101.525 56.9247L109.803 52.145C112.178 50.7733 110.033 47.0926 107.654 48.453L99.3749 53.2327C97.0007 54.6186 99.1449 58.2993 101.525 56.9247Z" fill="#171923"/>
<path d="M108.727 50.3075L100.451 55.0957M101.525 56.9247L109.803 52.145C112.178 50.7733 110.033 47.0926 107.654 48.453L99.3749 53.2327C97.0007 54.6186 99.1449 58.2993 101.525 56.9247Z" stroke="#171923" stroke-width="0.284" stroke-miterlimit="10"/>
<path d="M89.3101 43.1824L94.0899 34.9038C95.4644 32.5267 91.7838 30.3769 90.3979 32.7539L85.6181 41.0325C84.2578 43.4125 87.9384 45.5595 89.3101 43.1824Z" fill="#171923"/>
<path d="M92.2495 33.8303L87.4727 42.1089M89.3101 43.1824L94.0899 34.9038C95.4644 32.5267 91.7838 30.3769 90.3979 32.7539L85.6181 41.0325C84.2578 43.4125 87.9384 45.5595 89.3101 43.1824Z" stroke="#171923" stroke-width="0.284" stroke-miterlimit="10"/>
<path d="M107.139 83.3169C107.293 83.7173 107.438 84.1235 107.568 84.5353C107.697 84.9095 107.713 85.3136 107.614 85.6968C110.86 86.8801 113.585 89.169 115.311 92.1616C117.037 95.1543 117.654 98.6594 117.053 102.061C116.452 105.464 114.672 108.545 112.025 110.765C109.378 112.986 106.033 114.202 102.578 114.202H62.6338C59.5863 114.202 56.5905 113.414 53.9374 111.915C51.2842 110.415 49.0639 108.255 47.492 105.645C45.92 103.034 45.0499 100.061 44.9661 97.0144C44.8824 93.968 45.5878 90.9518 47.0138 88.2585C46.7298 87.8495 46.46 87.4349 46.2016 87.0089C46.0425 86.7448 45.8892 86.4778 45.7415 86.2109C43.2877 90.3036 42.3592 95.1319 43.1202 99.8429C43.6511 102.966 44.9231 105.915 46.8296 108.445C48.736 110.975 51.2213 113.01 54.0769 114.381C57.394 115.934 60.8304 116.329 64.4287 116.329H99.4885C102.272 116.329 105.027 116.409 107.725 115.528C114.719 113.239 119.61 106.488 119.405 99.0931C119.285 95.506 118.034 92.0487 115.832 89.2153C113.629 86.3819 110.586 84.3174 107.139 83.3169Z" fill="#171923" stroke="#171923" stroke-width="0.284" stroke-miterlimit="10"/>
<path d="M62.634 78.8528C64.4831 78.8498 66.3212 79.1373 68.0811 79.7048C70.7059 75.7567 74.5924 72.816 79.1053 71.3632C83.6182 69.9105 88.4904 70.0318 92.9254 71.7074C92.8811 70.9188 92.7967 70.133 92.6727 69.353C91.7147 69.0428 90.7364 68.7999 89.7446 68.626C85.5625 67.8875 81.2583 68.3029 77.2947 69.8276C73.331 71.3523 69.858 73.9286 67.249 77.2794C67.7233 77.3873 68.1919 77.5123 68.669 77.6572L66.2635 78.637C66.5816 78.1712 66.9129 77.7187 67.2575 77.2794C64.0571 76.533 60.7223 76.5856 57.547 77.4325C54.3718 78.2794 51.4538 79.8947 49.0503 82.1358C48.9139 82.2636 48.7663 82.3943 48.647 82.5278C48.9566 83.2131 49.3007 83.8823 49.6779 84.5328C51.3279 82.7423 53.331 81.3132 55.561 80.3356C57.7909 79.358 60.1992 78.8531 62.634 78.8528Z" fill="#171923" stroke="#171923" stroke-width="0.284" stroke-miterlimit="10"/>
<path d="M68.6492 77.657C68.1806 77.5122 67.712 77.3872 67.2292 77.2793C66.8846 77.7186 66.5533 78.1711 66.2352 78.6368L68.6492 77.657Z" fill="#171923" stroke="#171923" stroke-width="0.284" stroke-miterlimit="10"/>
<path d="M97.191 73.9195C100.566 76.1931 103.208 79.3976 104.797 83.1438C105.204 82.9788 105.652 82.9441 106.08 83.0444C106.438 83.1211 106.79 83.2148 107.14 83.3284C105.248 78.3473 101.737 74.1465 97.1711 71.4004C97.1995 71.869 97.2194 72.3404 97.2223 72.8204C97.2194 73.1868 97.2081 73.5559 97.191 73.9195Z" fill="#171923" stroke="#171923" stroke-width="0.284" stroke-miterlimit="10"/>
<path d="M104.797 83.1437C105.069 83.7835 105.308 84.4366 105.515 85.1005C106.229 85.2466 106.93 85.4459 107.614 85.6969C107.713 85.3137 107.698 84.9096 107.568 84.5353C107.438 84.1235 107.284 83.7203 107.14 83.317C106.79 83.2176 106.438 83.1239 106.08 83.033C105.651 82.9363 105.203 82.975 104.797 83.1437Z" fill="#171923" stroke="#171923" stroke-width="0.284" stroke-miterlimit="10"/>
<path d="M97.2225 72.8176C97.2395 70.4632 94.0985 70.1309 93.2039 71.8236C94.5364 72.3537 95.8108 73.0199 97.0066 73.8116C97.1584 73.5028 97.2325 73.1615 97.2225 72.8176Z" fill="#171923" stroke="#171923" stroke-width="0.284" stroke-miterlimit="10"/>
<path d="M97.1911 73.9197C97.2081 73.5533 97.2223 73.1841 97.2251 72.8149C97.2325 73.1553 97.1575 73.4924 97.0065 73.7976L97.1911 73.9197Z" fill="#171923" stroke="#171923" stroke-width="0.284" stroke-miterlimit="10"/>
<path d="M47.014 88.2589C47.7315 86.9067 48.6212 85.6533 49.6609 84.53C49.2837 83.8794 48.9396 83.2102 48.63 82.5249C47.5204 83.6333 46.5504 84.8731 45.7417 86.2169C45.8922 86.4839 46.0427 86.7508 46.2018 87.015C46.4602 87.4353 46.7357 87.8499 47.014 88.2589Z" fill="#171923" stroke="#171923" stroke-width="0.284" stroke-miterlimit="10"/>
<path d="M92.9281 71.7126L93.2121 71.8205C94.1124 70.1165 97.2506 70.4601 97.2307 72.8145C97.2307 72.3402 97.208 71.8688 97.1796 71.3945C95.7606 70.5488 94.2518 69.8639 92.681 69.3525C92.8034 70.1345 92.8859 70.9222 92.9281 71.7126Z" fill="#171923" stroke="#171923" stroke-width="0.284" stroke-miterlimit="10"/>
<path d="M115.123 98.6902C115.407 104.103 112.229 109.278 107.12 111.234C104.813 112.118 102.505 112.072 100.102 112.072H67.3084C65.7521 112.072 64.1844 112.086 62.6366 112.072C60.0411 112.076 57.4859 111.43 55.2043 110.193C52.9227 108.955 50.9875 107.166 49.5754 104.988C48.1633 102.81 47.3192 100.313 47.1203 97.7255C46.9214 95.1376 47.3739 92.541 48.4366 90.173C48.8932 89.1301 49.4647 88.1413 50.1406 87.2251C50.3621 86.9269 50.5922 86.6401 50.8336 86.3731C54.9175 81.6331 61.5006 79.9291 67.4902 81.778C68.4387 82.062 69.3731 81.5678 69.8957 80.7982C74.0534 74.6837 81.6589 71.3893 88.9663 72.8178C90.315 73.0825 91.631 73.4929 92.8911 74.0418C93.1382 74.1497 93.3825 74.2605 93.621 74.3769C93.8596 74.4934 94.172 74.6609 94.4418 74.8001C98.7053 77.1298 101.916 81.0022 103.416 85.6233C103.468 86.0087 103.643 86.3671 103.914 86.6454C104.186 86.9237 104.54 87.1071 104.924 87.1683C110.457 88.3497 114.807 92.9477 115.123 98.6902Z" fill="white"/>
<path d="M107.614 85.6972C110.86 86.8805 113.585 89.1694 115.311 92.162C117.037 95.1547 117.654 98.6598 117.053 102.062C116.452 105.464 114.672 108.546 112.025 110.766C109.378 112.986 106.033 114.203 102.579 114.202H62.634C60.0788 114.204 57.5535 113.651 55.2324 112.582C52.9113 111.514 50.8495 109.955 49.189 108.012C47.5285 106.07 46.3089 103.791 45.6141 101.332C44.9194 98.873 44.766 96.2926 45.1647 93.7686C45.5633 91.2446 46.5044 88.837 47.9232 86.7118C49.342 84.5865 51.2047 82.7942 53.3829 81.4582C55.5611 80.1223 58.0031 79.2745 60.5406 78.9732C63.0781 78.672 65.6507 78.9245 68.0812 79.7133C70.7059 75.7653 74.5925 72.8245 79.1054 71.3718C83.6183 69.9191 88.4905 70.0404 92.9255 71.7159L93.2095 71.8238C94.543 72.3519 95.8175 73.0182 97.0123 73.8118C97.0747 73.8516 97.1372 73.8913 97.1968 73.9339C100.569 76.2045 103.209 79.405 104.797 83.1469C105.066 83.783 105.308 84.4362 105.515 85.1036C106.229 85.2483 106.93 85.4467 107.614 85.6972ZM107.12 111.234C112.232 109.278 115.418 104.103 115.123 98.6902C114.808 92.9477 110.457 88.3498 104.95 87.157C104.566 87.0957 104.212 86.9124 103.94 86.6341C103.669 86.3558 103.494 85.9974 103.442 85.612C101.942 80.9908 98.7312 77.1185 94.4676 74.7888C94.1836 74.6411 93.9252 74.5048 93.6469 74.3656C93.3685 74.2264 93.1641 74.1384 92.917 74.0305C91.6568 73.4816 90.3408 73.0712 88.9921 72.8064C81.6848 71.3864 74.0793 74.6723 69.9215 80.7868C69.3989 81.5565 68.4646 82.0592 67.516 81.7666C61.5264 79.9178 54.9433 81.6218 50.8594 86.3618C50.618 86.6458 50.388 86.9298 50.1665 87.2138C49.4906 88.13 48.919 89.1187 48.4625 90.1617C47.3997 92.5297 46.9472 95.1262 47.1461 97.7141C47.3451 100.302 48.1891 102.799 49.6013 104.977C51.0134 107.154 52.9486 108.944 55.2301 110.181C57.5117 111.419 60.0669 112.065 62.6625 112.061C64.2188 112.075 65.7864 112.061 67.3342 112.061H100.102C102.505 112.072 104.814 112.118 107.12 111.234Z" fill="#171923"/>
</svg>
