<svg width="40" height="40" viewBox="0 0 40 40" fill="none" xmlns="http://www.w3.org/2000/svg">
<path d="M19.9999 23.3333C23.6766 23.3333 26.6666 20.3433 26.6666 16.6667C26.6666 12.99 23.6766 10 19.9999 10C16.3233 10 13.3333 12.99 13.3333 16.6667C13.3333 20.3433 16.3233 23.3333 19.9999 23.3333ZM19.9999 13.3333C21.8383 13.3333 23.3333 14.8283 23.3333 16.6667C23.3333 18.505 21.8383 20 19.9999 20C18.1616 20 16.6666 18.505 16.6666 16.6667C16.6666 14.8283 18.1616 13.3333 19.9999 13.3333Z" fill="#171923"/>
<path d="M19.0336 36.3568C19.3156 36.5583 19.6536 36.6666 20.0002 36.6666C20.3469 36.6666 20.6848 36.5583 20.9669 36.3568C21.4736 35.9985 33.3819 27.4002 33.3336 16.6668C33.3336 9.31516 27.3519 3.3335 20.0002 3.3335C12.6486 3.3335 6.66689 9.31516 6.66689 16.6585C6.61856 27.4002 18.5269 35.9985 19.0336 36.3568ZM20.0002 6.66683C25.5152 6.66683 30.0002 11.1518 30.0002 16.6752C30.0352 24.0718 22.6869 30.7135 20.0002 32.8918C17.3152 30.7118 9.96523 24.0685 10.0002 16.6668C10.0002 11.1518 14.4852 6.66683 20.0002 6.66683Z" fill="#171923"/>
</svg>
