<svg width="42" height="42" viewBox="0 0 42 42" fill="none" xmlns="http://www.w3.org/2000/svg">
<path d="M24.9375 32.8125C24.9371 33.5343 24.7384 34.2421 24.3629 34.8585C23.9875 35.475 23.4498 35.9764 22.8087 36.3079C22.1676 36.6395 21.4476 36.7884 20.7276 36.7385C20.0075 36.6886 19.3151 36.4417 18.7258 36.0248C18.1366 35.6079 17.6733 35.0371 17.3866 34.3747C17.0998 33.7123 17.0007 32.9839 17.0999 32.269C17.1992 31.554 17.493 30.8802 17.9494 30.3209C18.4057 29.7617 19.007 29.3387 19.6875 29.0981V17.0625C19.6875 16.7144 19.8258 16.3806 20.0719 16.1344C20.3181 15.8883 20.6519 15.75 21 15.75C21.3481 15.75 21.6819 15.8883 21.9281 16.1344C22.1742 16.3806 22.3125 16.7144 22.3125 17.0625V29.0981C23.0805 29.3697 23.7454 29.8727 24.2156 30.538C24.6857 31.2032 24.9379 31.9979 24.9375 32.8125Z" fill="#171923"/>
<path d="M14.4375 6.5625C14.4375 4.82202 15.1289 3.15282 16.3596 1.92211C17.5903 0.691404 19.2595 0 21 0C22.7405 0 24.4097 0.691404 25.6404 1.92211C26.8711 3.15282 27.5625 4.82202 27.5625 6.5625V26.3813C28.8286 27.6735 29.6851 29.3108 30.0244 31.0878C30.3638 32.8648 30.1709 34.7025 29.4701 36.3703C28.7693 38.0382 27.5916 39.462 26.0848 40.4633C24.578 41.4646 22.8091 41.9987 21 41.9987C19.1909 41.9987 17.422 41.4646 15.9152 40.4633C14.4084 39.462 13.2308 38.0382 12.5299 36.3703C11.8291 34.7025 11.6362 32.8648 11.9756 31.0878C12.3149 29.3108 13.1714 27.6735 14.4375 26.3813V6.5625ZM21 2.625C19.9557 2.625 18.9542 3.03984 18.2158 3.77827C17.4773 4.51669 17.0625 5.51821 17.0625 6.5625V27.5284L16.6241 27.9221C15.6334 28.8081 14.935 29.9741 14.6214 31.2657C14.3079 32.5573 14.3939 33.9136 14.8681 35.1553C15.3423 36.3969 16.1823 37.4653 17.2771 38.2191C18.3718 38.9728 19.6696 39.3764 20.9987 39.3764C22.3278 39.3764 23.6256 38.9728 24.7203 38.2191C25.8151 37.4653 26.6551 36.3969 27.1293 35.1553C27.6035 33.9136 27.6895 32.5573 27.3759 31.2657C27.0624 29.9741 26.364 28.8081 25.3733 27.9221L24.9375 27.5284V6.5625C24.9375 5.51821 24.5227 4.51669 23.7842 3.77827C23.0458 3.03984 22.0443 2.625 21 2.625Z" fill="#171923"/>
</svg>
