<svg width="142" height="142" viewBox="0 0 142 142" fill="none" xmlns="http://www.w3.org/2000/svg">
<path d="M83.0637 40.0444C82.9031 40.3521 82.8202 40.6943 82.8223 41.0413C82.8223 40.6692 82.8081 40.3029 82.7882 39.9365L83.0637 40.0444Z" fill="#171923"/>
<path d="M38.4962 50.7681C38.8046 51.4474 39.1468 52.1109 39.5215 52.7561C38.4827 53.8802 37.5931 55.1335 36.8746 56.485C36.5906 56.076 36.3236 55.6614 36.0624 55.2325C35.9005 54.9656 35.7471 54.6958 35.5938 54.4231C36.4095 53.0917 37.3842 51.8643 38.4962 50.7681Z" fill="#171923"/>
<path d="M82.5361 37.5935C82.6572 38.366 82.7415 39.1499 82.7888 39.9451C78.6588 38.3856 74.1417 38.1709 69.8824 39.3318C65.6232 40.4926 61.8396 42.9695 59.072 46.4089L58.504 45.8892C58.0354 45.7443 57.5639 45.6222 57.084 45.5143C59.6929 42.1625 63.1663 39.5854 67.1305 38.0601C71.0947 36.5349 75.3997 36.1193 79.5825 36.858C80.5833 37.0325 81.5703 37.2783 82.5361 37.5935Z" fill="#171923"/>
<path d="M97.4314 52.7675L95.9432 51.2793C96.3011 51.356 96.6532 51.4497 97.0026 51.5491C97.1531 51.9524 97.3008 52.3557 97.4314 52.7675Z" fill="#171923"/>
<path d="M36.0674 55.2381C36.3287 55.667 36.6013 56.0901 36.8796 56.4906C35.4542 59.1837 34.7494 62.1997 34.8335 65.2457C34.9176 68.2916 35.7878 71.2641 37.3597 73.8745C38.9315 76.4849 41.1516 78.6446 43.8044 80.1439C46.4572 81.6431 49.4525 82.431 52.4996 82.4311H54.5558C54.5558 83.5046 53.8799 84.5782 52.4996 84.5611C47.5106 84.5297 42.7111 82.6461 39.0323 79.2759C32.418 73.1926 30.8446 63.051 35.1529 55.1955C35.2949 54.9371 35.4369 54.6786 35.5959 54.4287C35.7465 54.7014 35.8998 54.9712 36.0674 55.2381Z" fill="#171923"/>
<path d="M82.7882 39.945C82.808 40.3114 82.8194 40.6777 82.8222 41.0498C82.8251 41.4218 82.8024 41.8592 82.7796 42.2625C81.5194 41.7139 80.2034 41.3035 78.8548 41.0384C71.5446 39.6184 63.9419 42.9015 59.7813 49.0188C59.2588 49.7885 58.3244 50.2883 57.3758 49.9986C53.1471 48.6922 48.6144 49.0501 44.7577 51.2738C43.2371 52.1526 41.878 53.2851 40.7391 54.6221C40.3018 54.0172 39.8871 53.3981 39.5208 52.7619C41.8131 50.2864 44.7647 48.517 48.0283 47.6617C51.292 46.8064 54.732 46.9009 57.9438 47.9339C58.296 47.4057 58.6747 46.8945 59.0798 46.4003C61.8478 42.9598 65.6324 40.4821 69.8928 39.3212C74.1533 38.1603 78.6716 38.3757 82.8024 39.9365L82.7882 39.945Z" fill="#171923"/>
<path d="M83.0642 40.0444C84.3961 40.576 85.6702 41.2421 86.8669 42.0324C86.4011 42.9526 85.2765 43.2792 84.3279 43.0208C84.061 42.8731 83.7855 42.7368 83.51 42.6004C83.2886 42.409 83.1121 42.1709 82.9933 41.9034C82.8745 41.6358 82.8163 41.3453 82.8228 41.0526C82.8188 40.7018 82.9018 40.3554 83.0642 40.0444Z" fill="#171923"/>
<path d="M82.5354 37.5933C84.1056 38.1037 85.6136 38.7886 87.0311 39.6352C87.0567 40.0555 87.0766 40.4872 87.0794 40.9019C86.9686 38.6781 83.9554 38.397 83.0636 40.0499L82.7796 39.9419C82.7399 39.1486 82.6585 38.3657 82.5354 37.5933Z" fill="#171923"/>
<path d="M58.9692 82.4314H71.8714C71.8665 82.7851 71.783 83.1334 71.6271 83.4509L67.1257 92.5844C70.4826 89.1953 73.8414 85.8081 77.202 82.4229H83.2115C75.8729 89.8258 68.5334 97.2278 61.193 104.629C61.0011 104.958 60.7072 105.216 60.3557 105.364C60.0042 105.511 59.6142 105.54 59.2447 105.447C57.8815 105.22 56.7796 103.567 57.66 102.209L66.3816 84.496H61.0879C60.5378 84.4878 60.0117 84.2693 59.6177 83.8853C59.2237 83.5013 58.9917 82.9811 58.9692 82.4314Z" fill="#171923"/>
<path d="M59.2475 81.3011L62.3204 76.0613C63.729 73.653 65.1386 71.2466 66.5491 68.842C66.8331 68.3649 67.0774 67.8736 67.3528 67.422C67.9208 66.4877 68.6166 65.7351 69.9316 65.6868C70.5772 65.6679 71.2228 65.6527 71.8684 65.6414C75.5604 65.5817 79.2524 65.6868 82.916 65.6868C84.4553 65.6868 85.6708 67.5243 84.7564 68.8932L81.3313 74.0052H86.4433C88.295 74.0052 89.2464 76.334 87.9485 77.6404L84.5604 81.0484C84.106 81.5056 83.6544 81.9628 83.2 82.4172H77.202L81.3313 78.2538H77.3553C75.816 78.2538 74.5977 76.4163 75.515 75.0474L78.94 69.9354H70.8375L64.8054 80.2304H69.7896C70.0724 80.2289 70.3525 80.2851 70.6127 80.3958C70.873 80.5065 71.1078 80.6693 71.3028 80.8742C71.4978 81.079 71.6488 81.3216 71.7466 81.5869C71.8443 81.8523 71.8868 82.1349 71.8713 82.4172H58.9692C58.9535 82.0263 59.0501 81.639 59.2475 81.3011Z" fill="#171923"/>
<path d="M84.3271 43.0176C85.2757 43.2761 86.4003 42.9495 86.8661 42.0293C86.9257 42.0719 86.9882 42.1117 87.0507 42.1514C87.0109 42.9892 86.9314 43.8213 86.8178 44.6449C86.0318 44.0378 85.1989 43.4936 84.3271 43.0176Z" fill="#171923"/>
<path d="M58.5032 45.8892L59.0712 46.4089C58.6755 46.903 58.2969 47.4142 57.9352 47.9425C57.2941 47.7361 56.6417 47.5664 55.9813 47.4341L56.0949 46.8661L58.5032 45.8892Z" fill="#171923"/>
<path d="M82.8219 41.0498C82.8154 41.3425 82.8737 41.633 82.9925 41.9006C83.1113 42.1681 83.2877 42.4061 83.5092 42.5976C83.2678 42.4812 83.0235 42.3676 82.7793 42.2625C82.802 41.8592 82.8191 41.4644 82.8219 41.0498Z" fill="#171923"/>
<path d="M34.8203 64.7521C34.8169 61.8697 35.522 59.0307 36.8736 56.4849C37.3337 57.1579 37.8222 57.8055 38.3334 58.4274C36.8569 61.6907 36.5558 65.3645 37.4814 68.8247C39.3189 75.5839 45.5271 80.2187 52.488 80.2954C53.8483 80.3125 54.5328 81.3689 54.5441 82.4254H52.488C47.8017 82.4239 43.3079 80.5612 39.9947 77.247C36.6815 73.9328 34.8203 69.4384 34.8203 64.7521Z" fill="#171923"/>
<path d="M57.0834 45.5142C57.5577 45.6221 58.0292 45.7442 58.5034 45.889L56.1036 46.8603C56.4217 46.4002 56.7483 45.9515 57.0834 45.5142Z" fill="#171923"/>
<path d="M86.4433 74.008H81.3313L84.7563 68.896C85.6708 67.5271 84.4553 65.6896 82.916 65.6896C79.241 65.6896 75.5462 65.5845 71.8684 65.6442C71.2209 65.6555 70.5753 65.6707 69.9315 65.6896C68.6166 65.7379 67.9265 66.4905 67.3528 67.4249C67.0688 67.8736 66.8274 68.3649 66.5491 68.8449C65.1385 71.2494 63.729 73.6558 62.3203 76.0641L59.2474 81.3039C59.0444 81.6469 58.9457 82.0417 58.9634 82.4399H54.5529C54.5529 81.3834 53.8571 80.327 52.4968 80.3099C45.5359 80.2332 39.3277 75.5984 37.4902 68.8392C36.5646 65.3791 36.8657 61.7052 38.3422 58.4419C38.9572 57.0628 39.7674 55.7792 40.7477 54.6306C41.8865 53.2936 43.2457 52.1612 44.7663 51.2823C48.623 49.0586 53.1556 48.7007 57.3844 50.0071C58.333 50.2911 59.2673 49.797 59.7899 49.0273C63.9505 42.91 71.5532 39.6156 78.8633 41.0469C80.212 41.312 81.528 41.7224 82.7882 42.271C83.0324 42.376 83.2767 42.4896 83.5181 42.6061C83.7595 42.7225 84.069 42.8901 84.336 43.0264C88.6163 45.368 91.8355 49.2621 93.3303 53.9064C93.4287 54.2619 93.6175 54.5858 93.8783 54.8466C94.1391 55.1074 94.463 55.2962 94.8184 55.3946C101.217 56.7834 105.752 62.7076 104.932 69.3106C104.154 75.587 98.6837 80.2191 92.4357 80.3014C91.0782 80.3213 90.3937 81.3778 90.3795 82.4314H83.2114C83.6658 81.977 84.1173 81.5198 84.5717 81.0625L87.9598 77.6545C89.2464 76.3368 88.295 74.008 86.4433 74.008Z" fill="#E2E8F0"/>
<path d="M78.929 69.9492L75.5039 75.0612C74.5866 76.4301 75.805 78.2676 77.3443 78.2676H81.3203L77.1909 82.431H71.8716C71.8871 82.1486 71.8446 81.8661 71.7469 81.6007C71.6491 81.3353 71.4981 81.0928 71.3031 80.8879C71.1081 80.6831 70.8733 80.5203 70.613 80.4096C70.3528 80.2989 70.0727 80.2426 69.7899 80.2442H64.8057L70.8378 69.9492H78.929Z" fill="#FAF089"/>
<path d="M39.5208 52.7617C39.8929 53.3979 40.3018 54.017 40.7392 54.6219C39.7609 55.7709 38.9527 57.0544 38.3394 58.4332C37.8282 57.8112 37.3397 57.1637 36.8796 56.4906C37.5963 55.1395 38.484 53.8862 39.5208 52.7617Z" fill="#171923"/>
<path d="M86.8663 42.0323C86.9926 41.7771 87.0651 41.4987 87.0793 41.2144C87.0793 41.5296 87.0651 41.842 87.0509 42.1544C86.9885 42.1118 86.926 42.072 86.8663 42.0323Z" fill="#171923"/>
<path d="M92.4385 82.4314C96.082 82.4334 99.5963 81.0819 102.3 78.6391C105.003 76.1964 106.703 72.8366 107.069 69.2115C107.435 65.5865 106.442 61.9547 104.281 59.0206C102.121 56.0866 98.9482 54.0596 95.3779 53.3328C93.9553 48.7669 91.018 44.8228 87.051 42.1517C87.0652 41.8393 87.0766 41.5269 87.0794 41.2117V41.1804C87.0794 41.1407 87.0794 41.1009 87.0794 41.0612V41.0413C87.0794 40.9902 87.0794 40.9419 87.0794 40.8936C87.0794 40.4676 87.0567 40.0416 87.0311 39.627C91.5957 42.369 95.1072 46.5645 97.0024 51.5408C96.653 51.4414 96.3009 51.3476 95.943 51.271L97.4312 52.7591C97.3006 52.3473 97.1472 51.944 97.0024 51.5408C104.79 53.7787 110.143 61.5234 109.138 69.6884C108.619 73.7652 106.642 77.5165 103.573 80.249C100.503 82.9814 96.5479 84.5103 92.4385 84.5529C91.0554 84.5728 90.371 83.4993 90.3823 82.4229L92.4385 82.4314Z" fill="#171923"/>
<path d="M39.5213 52.7618C39.1467 52.1166 38.8045 51.4531 38.4961 50.7738C40.9074 48.4126 43.8724 46.6939 47.1197 45.775C50.367 44.8562 53.7929 44.7664 57.0839 45.5141C56.7393 45.9514 56.4089 46.403 56.0927 46.8688L55.9791 47.4368C53.0071 46.8362 49.9305 47.0109 47.0456 47.9441C44.1606 48.8772 41.5645 50.5373 39.5071 52.7646L39.5213 52.7618Z" fill="#171923"/>
<path d="M83.0635 40.0443C83.9439 38.3885 86.9685 38.6697 87.0792 40.8963C87.0792 40.9445 87.0792 40.9928 87.0792 41.0439V41.0638C87.0792 41.1036 87.0792 41.1433 87.0792 41.1831V41.2058C87.065 41.4902 86.9925 41.7686 86.8662 42.0237C85.6692 41.2364 84.395 40.5732 83.0635 40.0443Z" fill="#171923"/>
<path d="M107.135 67.7372C107.135 69.6671 106.755 71.5781 106.016 73.3611C105.278 75.144 104.195 76.764 102.83 78.1285C101.466 79.4931 99.8453 80.5754 98.0622 81.3136C96.2791 82.0519 94.368 82.4317 92.4381 82.4314H90.3819C90.3819 81.3777 91.0806 80.3212 92.4381 80.3014C98.6861 80.219 104.145 75.587 104.934 69.3106C105.755 62.699 101.219 56.7748 94.8209 55.3946C94.4654 55.2961 94.1415 55.1073 93.8807 54.8465C93.62 54.5857 93.4312 54.2618 93.3327 53.9064C92.1568 50.2323 89.8879 47.0043 86.8291 44.6537C86.9427 43.8301 87.0222 42.998 87.062 42.1602C91.0289 44.8312 93.9663 48.7753 95.3889 53.3412C98.7047 54.0219 101.684 55.8259 103.824 58.4486C105.964 61.0714 107.134 64.3522 107.135 67.7372Z" fill="#171923"/>
<path d="M77.2023 82.4314C73.8435 85.8185 70.4848 89.2029 67.126 92.5844L71.6274 83.4424C71.7833 83.1248 71.8667 82.7766 71.8716 82.4229L77.2023 82.4314Z" fill="#FAF089"/>
<path d="M35.5931 54.4287C35.4398 54.6786 35.2921 54.9371 35.1501 55.1955C30.8418 63.051 32.4152 73.1926 39.0295 79.2759C42.7083 82.6461 47.5078 84.5297 52.4968 84.5611C53.8771 84.5782 54.5615 83.5046 54.553 82.4311" stroke="#171923" stroke-miterlimit="10"/>
<path d="M57.0834 45.5143C53.7912 44.7639 50.3633 44.8517 47.1139 45.7697C43.8644 46.6876 40.8972 48.4063 38.4843 50.7683" stroke="#171923" stroke-miterlimit="10"/>
<path d="M82.5361 37.5934C81.574 37.2786 80.5908 37.0328 79.5938 36.8578C75.4093 36.1169 71.102 36.5314 67.1355 38.0568C63.1691 39.5821 59.6939 42.1604 57.084 45.5141" stroke="#171923" stroke-miterlimit="10"/>
<path d="M90.3828 82.431C90.3828 83.5074 91.0559 84.5809 92.439 84.561C96.5484 84.5184 100.504 82.9895 103.573 80.2571C106.643 77.5246 108.62 73.7733 109.138 69.6964C110.144 61.5314 104.79 53.7924 97.0029 51.5488" stroke="#171923" stroke-miterlimit="10"/>
<path d="M97.0024 51.5491C95.1072 46.5728 91.5957 42.3773 87.0311 39.6353" stroke="#171923" stroke-miterlimit="10"/>
<path d="M97.0026 51.5491C97.1531 51.9524 97.2866 52.3557 97.4314 52.7675L95.9432 51.2793C96.3011 51.356 96.6532 51.4497 97.0026 51.5491Z" stroke="#171923" stroke-miterlimit="10"/>
<path d="M58.503 45.889C58.0344 45.7442 57.5629 45.6221 57.083 45.5142C56.7384 45.9515 56.408 46.4031 56.0918 46.8688L58.503 45.889Z" stroke="#171923" stroke-miterlimit="10"/>
<path d="M87.0794 40.8965C87.0794 40.4705 87.0567 40.0445 87.0311 39.6298C85.6136 38.7832 84.1056 38.0983 82.5354 37.5879C82.6566 38.3604 82.7408 39.1442 82.7882 39.9394" stroke="#171923" stroke-miterlimit="10"/>
<path d="M83.0635 40.0443C83.9439 38.3885 86.9685 38.6697 87.0792 40.8963" stroke="#171923" stroke-miterlimit="10"/>
<path d="M39.5215 52.7619C39.1468 52.1168 38.8046 51.4533 38.4962 50.7739C37.3838 51.8719 36.4091 53.1012 35.5938 54.4347C35.7471 54.7187 35.9005 54.9771 36.0624 55.2441C36.3236 55.6729 36.5963 56.0961 36.8746 56.4965" stroke="#171923" stroke-miterlimit="10"/>
<path d="M87.0791 40.8965C87.0791 40.9448 87.0791 40.993 87.0791 41.0442V41.064" stroke="#171923" stroke-miterlimit="10"/>
<path d="M87.0791 41.1803C87.0791 41.1406 87.0791 41.1008 87.0791 41.061" stroke="#171923" stroke-miterlimit="10"/>
<path d="M87.0791 41.1802V41.2029" stroke="#171923" stroke-miterlimit="10"/>
<path d="M87.0508 42.1515C87.065 41.8391 87.0763 41.5267 87.0792 41.2114" stroke="#171923" stroke-miterlimit="10"/>
<path d="M86.8184 44.6451C89.8772 46.9958 92.146 50.2237 93.322 53.8978C93.4204 54.2533 93.6092 54.5771 93.87 54.8379C94.1308 55.0987 94.4547 55.2875 94.8101 55.386C101.209 56.7747 105.744 62.699 104.923 69.302C104.145 75.5784 98.6754 80.2104 92.4274 80.2928C91.0698 80.3127 90.3854 81.3691 90.3712 82.4228H92.4274C96.0709 82.4247 99.5852 81.0732 102.289 78.6305C104.992 76.1877 106.692 72.8279 107.058 69.2029C107.424 65.5778 106.431 61.946 104.27 59.012C102.11 56.078 98.937 54.0509 95.3668 53.3241C93.9442 48.7583 91.0068 44.8141 87.0399 42.1431" stroke="#171923" stroke-miterlimit="10"/>
<path d="M82.7885 39.9451C78.6585 38.3856 74.1414 38.171 69.8821 39.3318C65.6229 40.4926 61.8393 42.9696 59.0717 46.4089C58.676 46.9031 58.2973 47.4143 57.9357 47.9425C57.2945 47.7362 56.6422 47.5664 55.9818 47.4342C53.0097 46.8337 49.9332 47.0084 47.0482 47.9415C44.1633 48.8746 41.5671 50.5347 39.5098 52.762" stroke="#171923" stroke-miterlimit="10"/>
<path d="M40.7391 54.6219C41.878 53.2848 43.2371 52.1524 44.7577 51.2735C48.6145 49.0498 53.1471 48.6919 57.3759 49.9983C58.3244 50.2823 59.2588 49.7882 59.7813 49.0185C63.9419 42.9012 71.5446 39.6068 78.8548 41.0381C80.2034 41.3032 81.5194 41.7136 82.7797 42.2622" stroke="#171923" stroke-miterlimit="10"/>
<path d="M36.874 56.4907C35.4486 59.1839 34.7438 62.1999 34.8279 65.2458C34.912 68.2918 35.7822 71.2643 37.3541 73.8747C38.9259 76.4851 41.146 78.6448 43.7988 80.144C46.4516 81.6433 49.4469 82.4312 52.494 82.4313H54.5502C54.5502 81.3748 53.8544 80.3183 52.494 80.3013C45.5332 80.2246 39.3249 75.5897 37.4875 68.8305C36.5619 65.3704 36.863 61.6966 38.3395 58.4333" stroke="#171923" stroke-miterlimit="10"/>
<path d="M86.8662 42.0324C85.6696 41.2421 84.3954 40.576 83.0635 40.0444" stroke="#171923" stroke-miterlimit="10"/>
<path d="M83.5096 42.6001C83.7936 42.7336 84.0606 42.8841 84.3276 43.0204" stroke="#171923" stroke-miterlimit="10"/>
<path d="M39.5209 52.7617C38.4821 53.8858 37.5925 55.1391 36.874 56.4906C37.3341 57.1637 37.8226 57.8112 38.3338 58.4332C38.9488 57.0541 39.7589 55.7705 40.7393 54.6219C40.3019 54.017 39.8929 53.3922 39.5209 52.7617Z" stroke="#171923" stroke-miterlimit="10"/>
<path d="M83.0633 40.0444L82.7793 39.9365C82.7992 40.3029 82.8105 40.6692 82.8134 41.0413C82.814 40.6936 82.8998 40.3513 83.0633 40.0444Z" stroke="#171923" stroke-miterlimit="10"/>
<path d="M82.8219 41.0498C82.8219 41.4531 82.802 41.8592 82.7793 42.2625C83.0235 42.3676 83.2678 42.4812 83.5092 42.5976C83.2877 42.4061 83.1113 42.1681 82.9925 41.9006C82.8737 41.633 82.8154 41.3425 82.8219 41.0498Z" stroke="#171923" stroke-miterlimit="10"/>
<path d="M84.3271 43.0176C85.1989 43.4936 86.0318 44.0378 86.8178 44.6449C86.9314 43.8213 87.0109 42.9892 87.0507 42.1514C86.9882 42.1117 86.9257 42.0719 86.8661 42.0293C86.4003 42.9495 85.2757 43.2761 84.3271 43.0176Z" stroke="#171923" stroke-miterlimit="10"/>
<path d="M83.2114 82.4314C83.6658 81.977 84.1174 81.5198 84.5718 81.0625L87.9599 77.6545C89.2578 76.3481 88.3064 74.0193 86.4547 74.0193H81.3427L84.7678 68.9073C85.6823 67.5384 84.4667 65.701 82.9274 65.701C79.2525 65.701 75.5577 65.5959 71.8799 65.6555C71.2323 65.6669 70.5867 65.682 69.943 65.701C68.628 65.7492 67.9379 66.5018 67.3642 67.4362C67.0802 67.8849 66.8388 68.3762 66.5605 68.8562C65.15 71.2607 63.7404 73.6672 62.3318 76.0755L59.2589 81.3153C59.0558 81.6583 58.9571 82.0531 58.9749 82.4513C58.9952 83.0025 59.2263 83.5249 59.6205 83.9106C60.0148 84.2964 60.542 84.5161 61.0935 84.5245H66.3759L57.6514 102.218C56.771 103.575 57.873 105.228 59.2362 105.455C59.6057 105.549 59.9957 105.52 60.3472 105.372C60.6987 105.225 60.9926 104.967 61.1844 104.637C68.5211 97.2363 75.8634 89.8343 83.2114 82.4314Z" stroke="#171923" stroke-miterlimit="10"/>
<path d="M77.2023 82.4312C73.8435 85.8184 70.4847 89.2027 67.1259 92.5842L71.6273 83.4423C71.7833 83.1247 71.8667 82.7765 71.8716 82.4227C71.8871 82.1403 71.8446 81.8578 71.7469 81.5924C71.6491 81.327 71.4981 81.0845 71.3031 80.8796C71.1081 80.6748 70.8733 80.512 70.613 80.4013C70.3528 80.2906 70.0727 80.2343 69.7899 80.2359H64.8057L70.8378 69.9409H78.929L75.5039 75.0529C74.5866 76.4218 75.805 78.2593 77.3443 78.2593H81.3203L77.2023 82.4312Z" stroke="#171923" stroke-miterlimit="10"/>
</svg>
