<svg width="142" height="142" viewBox="0 0 142 142" fill="none" xmlns="http://www.w3.org/2000/svg">
<path d="M92.4617 91.7774C96.105 91.7786 99.6188 90.4266 102.322 87.9836C105.024 85.5406 106.724 82.1809 107.089 78.556C107.455 74.9312 106.462 71.2997 104.301 68.366C102.141 65.4323 98.9683 63.4054 95.3983 62.6787C94.2276 58.8956 92.0078 55.5222 88.9966 52.9501C85.9855 50.378 82.3065 48.7128 78.3869 48.1478C74.4673 47.5828 70.4678 48.1412 66.8529 49.7581C63.2379 51.3751 60.1557 53.9843 57.9642 57.2827C55.5337 56.4939 52.9611 56.2414 50.4237 56.5426C47.8862 56.8439 45.4442 57.6917 43.266 59.0276C41.0877 60.3636 39.225 62.1559 37.8063 64.2812C36.3875 66.4064 35.4464 68.814 35.0477 71.338C34.6491 73.862 34.8024 76.4424 35.4972 78.9014C36.1919 81.3605 37.4116 83.6396 39.072 85.5819C40.7325 87.5241 42.7944 89.0832 45.1155 90.1518C47.4366 91.2204 49.9618 91.7731 52.5171 91.7717" fill="white"/>
<path d="M92.4618 93.9073C96.5708 93.864 100.525 92.3348 103.594 89.6024C106.663 86.87 108.64 83.1191 109.158 79.0427C110.209 70.5227 104.33 62.4372 95.9635 60.6225L97.4517 62.1106C94.8758 54.0479 88.0314 47.6806 79.6136 46.2066C75.1494 45.4211 70.553 45.949 66.3831 47.7262C62.2132 49.5033 58.6491 52.4533 56.124 56.2176L58.5295 55.2378C49.6119 52.4859 39.6861 56.3085 35.1676 64.5445C30.8622 72.3971 32.4355 82.5416 39.0471 88.6249C42.7265 91.9939 47.5256 93.8773 52.5143 93.9101C55.2578 93.9414 55.2578 89.6814 52.5143 89.6501C45.5563 89.5735 39.3481 84.9357 37.5078 78.1765C36.6309 74.858 36.867 71.3435 38.1798 68.1721C39.4926 65.0007 41.8096 62.3475 44.7753 60.6196C48.6321 58.3959 53.1647 58.0381 57.3935 59.3445C58.342 59.6285 59.2764 59.1343 59.7989 58.3647C63.9624 52.2558 71.5679 48.9529 78.8752 50.3814C82.2168 51.0358 85.3218 52.5743 87.8667 54.8365C90.4117 57.0987 92.3034 60.002 93.345 63.2438C93.444 63.599 93.633 63.9226 93.8937 64.1833C94.1544 64.444 94.478 64.633 94.8332 64.732C101.232 66.1207 105.767 72.045 104.946 78.648C104.168 84.9215 98.6984 89.5564 92.4504 89.6388C89.7127 89.6757 89.7041 93.9357 92.4504 93.8988L92.4618 93.9073Z" fill="#171923"/>
<path d="M64.5245 93.4952L62.4314 88.0396C62.0196 86.9661 61.0114 86.2248 59.8101 86.5514C58.7848 86.8354 57.9073 88.0907 58.3219 89.1727L60.415 94.6255C60.8268 95.6991 61.835 96.4403 63.0363 96.1137C64.0615 95.8297 64.9391 94.5744 64.5245 93.4924V93.4952Z" fill="#4299E1"/>
<path d="M75.3057 93.4952L73.2126 88.0396C72.8008 86.9661 71.7926 86.2248 70.5913 86.5514C69.5661 86.8354 68.6885 88.0907 69.1032 89.1727L71.1962 94.6255C71.608 95.6991 72.6162 96.4403 73.8176 96.1137C74.8428 95.8297 75.7204 94.5744 75.3057 93.4924V93.4952Z" fill="#4299E1"/>
<path d="M86.0861 93.4957L83.993 88.0401C83.5812 86.9665 82.573 86.2253 81.3717 86.5519C80.3465 86.8359 79.4689 88.0912 79.8835 89.1732L81.9766 94.626C82.3884 95.6995 83.3966 96.4408 84.5979 96.1142C85.6232 95.8302 86.5007 94.5749 86.0861 93.4929V93.4957Z" fill="#4299E1"/>
</svg>
