<svg width="142" height="142" viewBox="0 0 142 142" fill="none" xmlns="http://www.w3.org/2000/svg">
<path d="M92.4615 88.8916C96.1048 88.8928 99.6186 87.5408 102.321 85.0979C105.024 82.6549 106.723 79.2951 107.089 75.6703C107.455 72.0455 106.461 68.414 104.301 65.4802C102.141 62.5465 98.9681 60.5197 95.3981 59.793C94.2274 56.0099 92.0076 52.6364 88.9964 50.0643C85.9853 47.4922 82.3063 45.827 78.3867 45.262C74.4671 44.697 70.4676 45.2554 66.8527 46.8724C63.2377 48.4893 60.1555 51.0985 57.964 54.397C55.5342 53.6111 52.9629 53.3611 50.4272 53.6642C47.8914 53.9673 45.4515 54.8162 43.2752 56.1525C41.099 57.4888 39.2382 59.2809 37.8209 61.4052C36.4035 63.5296 35.4633 65.9358 35.065 68.4583C34.6666 70.9809 34.8196 73.5597 35.5134 76.0175C36.2072 78.4752 37.4253 80.7534 39.0838 82.6953C40.7424 84.6372 42.802 86.1966 45.121 87.2663C47.4399 88.336 49.9631 88.8905 52.5169 88.8916" fill="#E2E8F0"/>
<path d="M92.4618 91.0333C96.5708 90.9899 100.525 89.4608 103.594 86.7284C106.663 83.996 108.64 80.2451 109.158 76.1687C110.209 67.6487 104.33 59.5632 95.9635 57.7485L97.4517 59.2366C94.8758 51.1739 88.0314 44.8066 79.6136 43.3326C75.1494 42.5471 70.553 43.075 66.3831 44.8521C62.2132 46.6293 58.6491 49.5793 56.124 53.3436L58.5295 52.3638C49.6119 49.6119 39.6861 53.4345 35.1676 61.6705C30.8622 69.5231 32.4355 79.6676 39.0471 85.7509C42.7265 89.1199 47.5256 91.0033 52.5143 91.0361C55.2578 91.0673 55.2578 86.8073 52.5143 86.7761C45.5563 86.6994 39.3481 82.0617 37.5078 75.3025C36.6309 71.984 36.867 68.4695 38.1798 65.298C39.4926 62.1266 41.8096 59.4735 44.7753 57.7456C48.6321 55.5219 53.1647 55.1641 57.3935 56.4705C58.342 56.7545 59.2764 56.2603 59.7989 55.4907C63.9567 49.3733 71.5622 46.0789 78.8695 47.5103C82.2111 48.1647 85.3161 49.7031 87.861 51.9653C90.406 54.2275 92.2978 57.1308 93.3393 60.3726C93.4383 60.7278 93.6273 61.0514 93.888 61.3121C94.1487 61.5729 94.4723 61.7618 94.8275 61.8608C101.226 63.2495 105.762 69.1738 104.941 75.7768C104.163 82.0503 98.6927 86.6852 92.4447 86.7676C89.707 86.8045 89.6985 91.0645 92.4447 91.0276L92.4618 91.0333Z" fill="#171923"/>
<path d="M59.9463 91.0334H85.2989C88.0395 91.0334 88.0452 86.7734 85.2989 86.7734H59.9463C57.2057 86.7734 57.2 91.0334 59.9463 91.0334Z" fill="#171923"/>
<path d="M87.248 78.7363H55.6132C52.8726 78.7363 52.867 82.9963 55.6132 82.9963H87.248C89.9886 82.9963 89.9943 78.7363 87.248 78.7363Z" fill="#171923"/>
<path d="M93.4364 94.8076H64.9853C62.2447 94.8076 62.239 99.0676 64.9853 99.0676H93.4364C96.177 99.0676 96.1827 94.8076 93.4364 94.8076Z" fill="#171923"/>
</svg>
