<svg width="142" height="142" viewBox="0 0 142 142" fill="none" xmlns="http://www.w3.org/2000/svg">
<path d="M71.0001 95.0834C84.3009 95.0834 95.0833 84.301 95.0833 71.0002C95.0833 57.6994 84.3009 46.917 71.0001 46.917C57.6993 46.917 46.9169 57.6994 46.9169 71.0002C46.9169 84.301 57.6993 95.0834 71.0001 95.0834Z" fill="#FAF089"/>
<path d="M92.9534 70.9999C92.8795 80.068 87.1967 88.5198 78.5801 91.6154C74.2845 93.1535 69.6198 93.3326 65.2189 92.1285C60.818 90.9244 56.8942 88.3953 53.98 84.8846C48.1524 77.8329 47.4821 67.5209 52.1681 59.7052C56.8541 51.8895 66.3 47.621 75.2857 49.4585C80.2471 50.493 84.7052 53.1941 87.9192 57.1128C91.1332 61.0315 92.9097 65.9319 92.9534 70.9999C92.9761 73.7405 97.2361 73.7462 97.2134 70.9999C97.1665 65.6178 95.4845 60.3771 92.3905 55.9729C89.2965 51.5688 84.9367 48.2093 79.8894 46.3402C69.6426 42.5658 57.5897 45.9085 50.7311 54.3887C43.8725 62.869 42.8387 75.0213 48.4875 84.4444C54.1675 93.9272 65.4054 98.8205 76.2286 96.6877C88.3696 94.2879 97.1282 83.2573 97.2134 70.9999C97.2361 68.2593 92.9761 68.2564 92.9534 70.9999Z" fill="#171923"/>
<path d="M73.13 37.3145V28.2265C73.13 25.4859 68.87 25.4802 68.87 28.2265V37.3145C68.87 40.0551 73.13 40.0608 73.13 37.3145Z" fill="#171923"/>
<path d="M55.9962 40.751L51.4522 32.887C50.0805 30.5128 46.3999 32.657 47.7602 35.0369L52.3042 42.9009C53.676 45.2751 57.3566 43.1309 55.9962 40.751Z" fill="#171923"/>
<path d="M42.901 52.3184L35.0371 47.7744C32.6571 46.3998 30.5101 50.0805 32.8872 51.4664L40.7511 56.0104C43.1311 57.385 45.2781 53.7043 42.901 52.3184Z" fill="#171923"/>
<path d="M37.3146 68.8701H28.2266C25.486 68.8701 25.4804 73.1301 28.2266 73.1301H37.3146C40.0552 73.1301 40.0609 68.8701 37.3146 68.8701Z" fill="#171923"/>
<path d="M40.7514 86.0038L32.8874 90.5478C30.5132 91.9195 32.6574 95.6001 35.0373 94.2398L42.9012 89.6958C45.2755 88.324 43.1313 84.6434 40.7514 86.0038Z" fill="#171923"/>
<path d="M52.3186 99.0987L47.7746 106.963C46.4001 109.343 50.0807 111.49 51.4666 109.113L56.0106 101.249C57.3852 98.8687 53.7046 96.7216 52.3186 99.0987Z" fill="#171923"/>
<path d="M68.87 104.685V113.773C68.87 116.514 73.13 116.519 73.13 113.773V104.685C73.13 101.944 68.87 101.939 68.87 104.685Z" fill="#171923"/>
<path d="M86.0038 101.249L90.5478 109.113C91.9195 111.487 95.6001 109.343 94.2398 106.963L89.6958 99.0989C88.324 96.7247 84.6434 98.8689 86.0038 101.249Z" fill="#171923"/>
<path d="M99.0989 89.6817L106.963 94.2257C109.343 95.6003 111.49 91.9197 109.113 90.5337L101.249 85.9897C98.8688 84.6152 96.7218 88.2958 99.0989 89.6817Z" fill="#171923"/>
<path d="M104.685 73.1301H113.773C116.514 73.1301 116.52 68.8701 113.773 68.8701H104.685C101.945 68.8701 101.939 73.1301 104.685 73.1301Z" fill="#171923"/>
<path d="M101.249 55.9961L109.113 51.4521C111.487 50.0804 109.343 46.3998 106.963 47.7601L99.0989 52.3041C96.7247 53.6758 98.8689 57.3565 101.249 55.9961Z" fill="#171923"/>
<path d="M89.6815 42.9011L94.2255 35.0372C95.6001 32.6573 91.9194 30.5102 90.5335 32.8873L85.9895 40.7513C84.6149 43.1312 88.2956 45.2782 89.6815 42.9011Z" fill="#171923"/>
</svg>
