<svg width="142" height="142" viewBox="0 0 142 142" fill="none" xmlns="http://www.w3.org/2000/svg">
<path d="M92.7019 85.9248C96.3452 85.926 99.859 84.574 102.562 82.1311C105.265 79.6881 106.964 76.3283 107.33 72.7035C107.695 69.0787 106.702 65.4472 104.542 62.5134C102.381 59.5797 99.2085 57.5529 95.6385 56.8262C94.4678 53.0431 92.248 49.6696 89.2369 47.0975C86.2257 44.5254 82.5468 42.8602 78.6272 42.2952C74.7076 41.7302 70.7081 42.2886 67.0931 43.9056C63.4781 45.5225 60.396 48.1317 58.2045 51.4302C55.774 50.6413 53.2014 50.3888 50.6639 50.6901C48.1264 50.9913 45.6844 51.8391 43.5062 53.1751C41.328 54.5111 39.4653 56.3034 38.0465 58.4286C36.6277 60.5539 35.6866 62.9614 35.288 65.4854C34.8893 68.0094 35.0427 70.5899 35.7374 73.0489C36.4322 75.5079 37.6518 77.7871 39.3123 79.7293C40.9728 81.6716 43.0346 83.2307 45.3557 84.2993C47.6768 85.3679 50.2021 85.9205 52.7573 85.9191" fill="white"/>
<path d="M92.702 88.0547C96.811 88.0114 100.765 86.4823 103.835 83.7499C106.904 81.0175 108.88 77.2665 109.398 73.1902C110.449 64.6702 104.57 56.5847 96.2037 54.7699L97.6919 56.2581C95.116 48.1953 88.2716 41.8281 79.8539 40.3541C75.3896 39.5686 70.7933 40.0964 66.6234 41.8736C62.4534 43.6508 58.8894 46.6008 56.3642 50.3651L58.7697 49.3853C49.8521 46.6333 39.9263 50.456 35.4079 58.692C31.1024 66.5446 32.6758 76.6891 39.2873 82.7723C42.9668 86.1414 47.7658 88.0248 52.7546 88.0576C55.498 88.0888 55.498 83.8288 52.7546 83.7976C45.7966 83.7209 39.5883 79.0832 37.748 72.324C36.8712 69.0055 37.1072 65.491 38.42 62.3195C39.7328 59.1481 42.0498 56.495 45.0156 54.7671C48.8723 52.5434 53.4049 52.1855 57.6337 53.4919C58.5823 53.7759 59.5166 53.2818 60.0392 52.5121C64.1969 46.3948 71.8025 43.1004 79.1098 44.5317C82.4514 45.1861 85.5563 46.7246 88.1013 48.9868C90.6462 51.249 92.538 54.1523 93.5796 57.3941C93.6785 57.7493 93.8675 58.0729 94.1282 58.3336C94.3889 58.5943 94.7126 58.7833 95.0677 58.8823C101.466 60.271 106.002 66.1953 105.181 72.7983C104.403 79.0718 98.933 83.7067 92.685 83.7891C89.9472 83.826 89.9387 88.086 92.685 88.0491L92.702 88.0547Z" fill="#171923"/>
<path d="M60.5051 75.7121L58.412 70.2593C58.0002 69.1858 56.992 68.4445 55.7907 68.7711C54.7654 69.0551 53.8879 70.3104 54.3025 71.3925L56.3956 76.8453C56.8074 77.9188 57.8156 78.66 59.0169 78.3334C60.0421 78.0494 60.9197 76.7941 60.5051 75.7121Z" fill="#4299E1"/>
<path d="M71.2852 75.715L69.1921 70.2622C68.7803 69.1887 67.7721 68.4475 66.5708 68.7741C65.5456 69.0581 64.668 70.3133 65.0826 71.3954L67.1757 76.8482C67.5875 77.9217 68.5957 78.6629 69.797 78.3363C70.8223 78.0524 71.6998 76.7971 71.2852 75.715Z" fill="#4299E1"/>
<path d="M82.0663 75.715L79.9733 70.2622C79.5615 69.1887 78.5532 68.4475 77.3519 68.7741C76.3267 69.0581 75.4491 70.3133 75.8638 71.3954L77.9568 76.8482C78.3686 77.9217 79.3769 78.6629 80.5782 78.3363C81.6034 78.0524 82.481 76.7971 82.0663 75.715Z" fill="#4299E1"/>
<path d="M65.1826 87.8927L63.0867 82.437C62.6749 81.3635 61.6667 80.6223 60.4653 80.9489C59.4401 81.2329 58.5625 82.4882 58.9772 83.5702L61.0703 89.023C61.4821 90.0965 62.4903 90.8378 63.6916 90.5112C64.7168 90.2272 65.5944 88.9719 65.1797 87.8898L65.1826 87.8927Z" fill="#4299E1"/>
<path d="M75.9631 87.8927L73.87 82.437C73.4582 81.3635 72.45 80.6223 71.2487 80.9489C70.2234 81.2329 69.3459 82.4882 69.7605 83.5702L71.8536 89.023C72.2654 90.0965 73.2736 90.8378 74.4749 90.5112C75.5001 90.2272 76.3777 88.9719 75.9631 87.8898V87.8927Z" fill="#4299E1"/>
<path d="M86.7432 87.8927L84.6501 82.437C84.2383 81.3635 83.2301 80.6223 82.0288 80.9489C81.0036 81.2329 80.126 82.4882 80.5407 83.5702L82.6337 89.023C83.0455 90.0965 84.0537 90.8378 85.2551 90.5112C86.2803 90.2272 87.1579 88.9719 86.7432 87.8898V87.8927Z" fill="#4299E1"/>
<path d="M69.8594 100.07L67.7663 94.6177C67.3545 93.5442 66.3463 92.8029 65.145 93.1295C64.1198 93.4135 63.2422 94.6688 63.6569 95.7509L65.7499 101.204C66.1617 102.277 67.1699 103.018 68.3713 102.692C69.3965 102.408 70.2741 101.153 69.8594 100.07Z" fill="#4299E1"/>
<path d="M80.6405 100.071L78.5475 94.6182C78.1357 93.5447 77.1275 92.8034 75.9261 93.13C74.9009 93.414 74.0233 94.6693 74.438 95.7514L76.5311 101.204C76.9429 102.278 77.9511 103.019 79.1524 102.692C80.1776 102.408 81.0552 101.153 80.6405 100.071Z" fill="#4299E1"/>
<path d="M91.4211 100.071L89.328 94.6182C88.9162 93.5447 87.908 92.8034 86.7067 93.13C85.6814 93.414 84.8039 94.6693 85.2185 95.7514L87.3116 101.204C87.7234 102.278 88.7316 103.019 89.9329 102.692C90.9581 102.408 91.8357 101.153 91.4211 100.071Z" fill="#4299E1"/>
</svg>
