<svg width="142" height="142" viewBox="0 0 142 142" fill="none" xmlns="http://www.w3.org/2000/svg">
<path d="M92.7019 84.9248C96.3452 84.926 99.859 83.574 102.562 81.1311C105.265 78.6881 106.964 75.3284 107.33 71.7035C107.695 68.0787 106.702 64.4472 104.542 61.5134C102.381 58.5797 99.2085 56.5529 95.6385 55.8262C94.4678 52.0431 92.248 48.6696 89.2369 46.0975C86.2257 43.5254 82.5468 41.8602 78.6272 41.2952C74.7076 40.7302 70.7081 41.2886 67.0931 42.9056C63.4781 44.5225 60.396 47.1317 58.2045 50.4302C55.774 49.6413 53.2014 49.3888 50.6639 49.6901C48.1264 49.9913 45.6844 50.8391 43.5062 52.1751C41.328 53.5111 39.4653 55.3034 38.0465 57.4286C36.6277 59.5539 35.6866 61.9614 35.288 64.4854C34.8893 67.0094 35.0427 69.5899 35.7374 72.0489C36.4322 74.5079 37.6518 76.7871 39.3123 78.7293C40.9728 80.6716 43.0346 82.2307 45.3557 83.2993C47.6768 84.3679 50.2021 84.9205 52.7573 84.9191" fill="white"/>
<path d="M92.702 87.0548C96.811 87.0114 100.765 85.4823 103.835 82.7499C106.904 80.0175 108.88 76.2666 109.398 72.1902C110.449 63.6702 104.57 55.5847 96.2037 53.7699L97.6919 55.2581C95.116 47.1953 88.2716 40.8281 79.8539 39.3541C75.3896 38.5686 70.7933 39.0964 66.6234 40.8736C62.4534 42.6508 58.8894 45.6008 56.3642 49.3651L58.7697 48.3853C49.8521 45.6333 39.9263 49.456 35.4079 57.692C31.1024 65.5446 32.6758 75.6891 39.2873 81.7724C42.9668 85.1414 47.7658 87.0248 52.7546 87.0576C55.498 87.0888 55.498 82.8288 52.7546 82.7976C45.7966 82.7209 39.5883 78.0832 37.748 71.324C36.8728 68.006 37.11 64.4925 38.4232 61.3222C39.7365 58.152 42.0533 55.4999 45.0184 53.7728C48.8751 51.5491 53.4078 51.1912 57.6365 52.4976C58.5851 52.7816 59.5195 52.2875 60.042 51.5178C64.1998 45.4005 71.8053 42.1061 79.1126 43.5374C82.4542 44.1918 85.5592 45.7303 88.1041 47.9925C90.6491 50.2547 92.5408 53.158 93.5824 56.3998C93.6814 56.755 93.8703 57.0786 94.1311 57.3393C94.3918 57.6 94.7154 57.789 95.0706 57.888C101.469 59.2767 106.005 65.201 105.184 71.804C104.406 78.0775 98.9358 82.7124 92.6878 82.7948C89.9501 82.8317 89.9415 87.0917 92.6878 87.0548H92.702Z" fill="#171923"/>
<path d="M87.0848 90.6672L85.767 89.906L86.6588 89.3863C89.0274 88.0089 86.886 84.3254 84.5089 85.6943L82.1091 87.0888C81.9217 87.1967 81.7115 87.3074 81.49 87.4239L80.638 86.9326V82.8401L81.49 82.346C81.7058 82.4596 81.9188 82.5703 82.1091 82.6811L84.5089 84.0755C86.8832 85.4558 89.0302 81.7751 86.6588 80.3835L85.767 79.8638L86.619 79.3753L87.1501 79.0686C89.0671 77.961 88.0362 75.3454 86.3123 75.0926C86.1652 75.0749 86.0164 75.0749 85.8693 75.0926C85.5618 75.1242 85.2645 75.2211 84.9974 75.3766L83.6427 76.1604C83.6427 75.8196 83.6427 75.4788 83.6427 75.138C83.6427 75.0727 83.6427 75.0074 83.6427 74.9449C83.4638 72.7013 80.2944 72.4826 79.5503 74.2974C79.4407 74.5679 79.3866 74.8576 79.3912 75.1494V77.9241C79.3912 78.1342 79.3912 78.37 79.3714 78.6114V78.6398L78.2808 79.2702L76.5228 78.2564C76.2388 78.0831 75.8867 77.8559 75.526 77.6202C75.3442 77.5009 75.1539 77.3788 74.958 77.2624V76.098C75.1738 75.9616 75.384 75.8282 75.5771 75.7174L77.9826 74.3372C78.1303 74.2531 78.2684 74.1531 78.3944 74.039C80.0728 72.5082 78.0593 69.3814 75.8384 70.6594L74.9608 71.162V69.6767C74.9608 66.9361 70.7008 66.9304 70.7008 69.6767V71.1876L69.8204 70.6736C67.7699 69.4978 65.8927 72.0623 66.9321 73.6698C67.1195 73.9541 67.3728 74.189 67.6705 74.3542L70.076 75.7344C70.2691 75.8452 70.4793 75.9787 70.6951 76.115V77.322C70.1925 77.6344 69.7154 77.9695 69.3121 78.2024L67.4064 79.3043L66.2875 78.6568C66.2875 78.4069 66.2676 78.1655 66.2676 77.9411V75.1664C66.2676 72.4258 62.0076 72.4202 62.0076 75.1664C62.0076 75.5072 62.0076 75.848 62.0076 76.1888L60.6529 75.405C58.273 74.0333 56.1259 77.7111 58.503 79.097L59.8776 79.8922L58.9858 80.4119C56.6173 81.7893 58.7586 85.4728 61.1357 84.1039L63.5355 82.7095C63.7229 82.6016 63.9331 82.4908 64.1546 82.3744L65.0634 82.8998V86.9411L64.1546 87.4665C63.9388 87.3529 63.7258 87.2421 63.5355 87.1314L61.1357 85.7369C58.7615 84.3567 56.6144 88.0373 58.9858 89.4289L59.8776 89.9486L58.5598 90.7098C56.1856 92.0815 58.3298 95.7621 60.7097 94.4018L62.0104 93.652C62.0104 93.9928 62.0104 94.3336 62.0104 94.6744C62.0104 97.415 66.2704 97.4207 66.2704 94.6744V91.8997C66.2704 91.681 66.2704 91.4368 66.2903 91.184L66.9605 90.7978L69.1956 92.0872C69.6301 92.3371 70.1499 92.7091 70.7008 93.0471V93.7258C70.485 93.8622 70.2748 93.9956 70.0817 94.1064L67.6762 95.4866C65.2991 96.8498 67.4433 100.533 69.8261 99.1786L70.7037 98.676V100.252C70.7037 102.993 74.9637 102.998 74.9637 100.252V98.676L75.8412 99.1786C78.224 100.545 80.3852 96.8669 77.9911 95.4866L75.5856 94.1064C75.3925 93.9956 75.1823 93.8622 74.9665 93.7258V93.0698C75.4919 92.746 75.9889 92.3939 76.4064 92.1525L78.7324 90.8092L79.377 91.1812C79.377 91.4311 79.3969 91.6725 79.3969 91.8969V94.6716C79.3969 97.4122 83.6569 97.4178 83.6569 94.6716C83.6569 94.3308 83.6569 93.99 83.6569 93.6492L84.9576 94.3989C87.312 95.7195 89.459 92.0389 87.0848 90.6672ZM72.8507 89.2244L72.8223 89.2074L71.2149 88.2787L70.6923 87.9777L69.3234 87.1882V83.1156L69.5336 82.9935L70.6923 82.3232L71.6636 81.7552L72.8223 81.085L72.8507 81.068L74.0094 81.7382L74.9523 82.2835L76.1394 82.9679L76.378 83.1042V87.1768L74.958 88.0004L74.4638 88.2844L72.8507 89.2244Z" fill="#4299E1"/>
</svg>
