<svg width="142" height="142" viewBox="0 0 142 142" fill="none" xmlns="http://www.w3.org/2000/svg">
<path d="M92.7019 87.9248C96.3452 87.926 99.859 86.574 102.562 84.1311C105.265 81.6881 106.964 78.3283 107.33 74.7035C107.695 71.0787 106.702 67.4472 104.542 64.5134C102.381 61.5797 99.2085 59.5529 95.6385 58.8262C94.4678 55.0431 92.248 51.6696 89.2369 49.0975C86.2257 46.5254 82.5468 44.8602 78.6272 44.2952C74.7076 43.7302 70.7081 44.2886 67.0931 45.9056C63.4781 47.5225 60.396 50.1317 58.2045 53.4302C55.774 52.6413 53.2014 52.3888 50.6639 52.6901C48.1264 52.9913 45.6844 53.8391 43.5062 55.1751C41.328 56.5111 39.4653 58.3034 38.0465 60.4286C36.6277 62.5539 35.6866 64.9614 35.288 67.4854C34.8893 70.0094 35.0427 72.5899 35.7374 75.0489C36.4322 77.5079 37.6518 79.7871 39.3123 81.7293C40.9728 83.6716 43.0346 85.2307 45.3557 86.2993C47.6768 87.3679 50.2021 87.9205 52.7573 87.9191" fill="white"/>
<path d="M92.702 90.055C96.811 90.0117 100.765 88.4826 103.835 85.7502C106.904 83.0178 108.88 79.2668 109.398 75.1905C110.449 66.6705 104.57 58.585 96.2037 56.7702L97.6919 58.2584C95.116 50.1956 88.2716 43.8284 79.8539 42.3544C75.3899 41.5686 70.7938 42.096 66.6238 43.8727C62.4539 45.6493 58.8897 48.5987 56.3642 52.3626L58.7697 51.3828C49.8521 48.6308 39.9263 52.4535 35.4079 60.6895C31.1024 68.5421 32.6758 78.6865 39.2873 84.7698C42.9668 88.1389 47.7658 90.0222 52.7546 90.055C55.498 90.0863 55.498 85.8263 52.7546 85.795C45.7966 85.7184 39.5883 81.0807 37.748 74.3214C36.8712 71.003 37.1072 67.4884 38.42 64.317C39.7328 61.1456 42.0498 58.4924 45.0156 56.7646C48.8723 54.5408 53.4049 54.183 57.6337 55.4894C58.5823 55.7734 59.5166 55.2792 60.0392 54.5096C64.1969 48.3922 71.8025 45.0978 79.1098 46.5292C82.4514 47.1836 85.5563 48.722 88.1013 50.9843C90.6462 53.2465 92.538 56.1497 93.5796 59.3916C93.6785 59.7468 93.8675 60.0704 94.1282 60.3311C94.3889 60.5918 94.7126 60.7808 95.0677 60.8797C101.466 62.2685 106.002 68.1927 105.181 74.7957C104.403 81.0693 98.933 85.7042 92.685 85.7865C89.9472 85.8234 89.9387 90.0835 92.685 90.0465L92.702 90.055Z" fill="#171923"/>
<path d="M62.7774 84.2473L60.6843 78.7945C60.2725 77.7209 59.2643 76.9797 58.063 77.3063C57.0378 77.5903 56.1602 78.8456 56.5748 79.9276L58.6679 85.3804C59.0797 86.4539 60.0879 87.1952 61.2892 86.8686C62.3145 86.5846 63.192 85.3293 62.7774 84.2473Z" fill="#4299E1"/>
<path d="M67.4541 96.425L65.3611 90.9722C64.9493 89.8987 63.9411 89.1574 62.7397 89.484C61.7145 89.768 60.8369 91.0233 61.2516 92.1054L63.3447 97.5582C63.7565 98.6317 64.7647 99.3729 65.966 99.0463C66.9912 98.7623 67.8688 97.507 67.4541 96.425Z" fill="#4299E1"/>
<path d="M73.5577 84.2473L71.4646 78.7945C71.0528 77.7209 70.0446 76.9797 68.8433 77.3063C67.818 77.5903 66.9405 78.8456 67.3551 79.9276L69.4482 85.3804C69.86 86.4539 70.8682 87.1952 72.0695 86.8686C73.0947 86.5846 73.9723 85.3293 73.5577 84.2473Z" fill="#4299E1"/>
<path d="M78.2354 96.425L76.1423 90.9722C75.7305 89.8987 74.7223 89.1574 73.521 89.484C72.4958 89.768 71.6182 91.0233 72.0328 92.1054L74.1259 97.5582C74.5377 98.6317 75.5459 99.3729 76.7472 99.0463C77.7725 98.7623 78.65 97.507 78.2354 96.425Z" fill="#4299E1"/>
<path d="M84.3379 84.2473L82.2449 78.7945C81.8331 77.7209 80.8249 76.9797 79.6235 77.3063C78.5983 77.5903 77.7207 78.8456 78.1354 79.9276L80.2285 85.3804C80.6403 86.4539 81.6485 87.1952 82.8498 86.8686C83.875 86.5846 84.7526 85.3293 84.3379 84.2473Z" fill="#4299E1"/>
<path d="M89.0157 96.425L86.9226 90.9722C86.5108 89.8987 85.5026 89.1574 84.3013 89.484C83.276 89.768 82.3985 91.0233 82.8131 92.1054L84.9062 97.5582C85.318 98.6317 86.3262 99.3729 87.5275 99.0463C88.5528 98.7623 89.4303 97.507 89.0157 96.425Z" fill="#4299E1"/>
</svg>
