<svg width="142" height="142" viewBox="0 0 142 142" fill="none" xmlns="http://www.w3.org/2000/svg">
<path d="M111.248 90.4397C111.388 94.5634 108.857 98.4599 104.921 99.8316C103.2 100.431 101.476 100.374 99.6924 100.374H73.9961C72.6926 100.374 71.3862 100.388 70.0798 100.374C67.9024 100.377 65.7661 99.7818 63.9039 98.6535C62.0418 97.5251 60.5254 95.9068 59.5202 93.9754C58.5151 92.0439 58.0598 89.8734 58.2041 87.7009C58.3484 85.5283 59.0868 83.4371 60.3386 81.6556C63.3291 77.3019 68.8586 75.6916 73.8172 77.2138C74.7686 77.4978 75.6973 77.0037 76.2227 76.234C79.4234 71.5537 85.2596 69.0147 90.8686 70.1138C93.4301 70.6151 95.8115 71.7909 97.767 73.5197C99.7225 75.2486 101.181 77.4679 101.993 79.9487C102.046 80.332 102.22 80.6881 102.491 80.9647C102.761 81.2413 103.113 81.4237 103.495 81.4852C107.758 82.4281 111.098 85.9695 111.248 90.4397Z" fill="white"/>
<path d="M109.122 79.2559C110.388 80.0728 111.515 81.0883 112.459 82.2634C112.131 82.9545 111.761 83.6251 111.351 84.2713C110.519 83.0573 109.465 82.0118 108.244 81.1899C108.582 80.5668 108.875 79.9205 109.122 79.2559Z" fill="#171923"/>
<path d="M97.9938 59.3386C104.372 60.7103 109.513 66.0013 110.052 72.6327C110.237 74.8811 109.922 77.1425 109.132 79.2555C108.066 78.5654 106.908 78.0272 105.693 77.6566C103.322 71.6926 98.0506 67.0322 91.618 65.9331C88.2733 65.3522 84.8342 65.6781 81.6581 66.8768C78.4821 68.0755 75.6852 70.1032 73.5584 72.7491C71.0329 72.2086 68.4154 72.2734 65.9197 72.9383C63.4241 73.6032 61.1212 74.8492 59.1994 76.5746C57.484 78.1488 56.129 80.0751 55.2271 82.2215C54.3252 84.368 53.8977 86.6839 53.9738 89.0109C52.2045 89.0109 50.438 89.028 48.6715 89.0109C43.8264 88.9967 39.1817 87.0757 35.7422 83.6633C32.3026 80.2509 30.3447 75.6216 30.2921 70.7768C30.2395 65.932 32.0963 61.2613 35.4609 57.775C38.8256 54.2887 43.4274 52.2672 48.2711 52.1477C50.3644 52.119 52.4485 52.4297 54.4424 53.0679C55.3881 53.3519 56.3253 52.8577 56.8479 52.0881C61.7582 44.8461 70.7411 40.961 79.3833 42.6366C83.3284 43.4037 86.9959 45.214 90.0042 47.8792C93.0124 50.5443 95.2516 53.9669 96.4886 57.7908C96.5376 58.1772 96.7109 58.5371 96.9824 58.8163C97.254 59.0955 97.6089 59.2789 97.9938 59.3386Z" fill="white"/>
<path d="M109.121 79.2557C108.874 79.9203 108.581 80.5666 108.243 81.1897C107.587 80.7467 106.888 80.3708 106.156 80.0679C106.267 79.6729 106.253 79.2533 106.116 78.8666C105.986 78.4576 105.841 78.0543 105.682 77.6567C106.897 78.0274 108.054 78.5655 109.121 79.2557Z" fill="#171923"/>
<path d="M106.117 78.8666C106.254 79.2534 106.268 79.673 106.156 80.0679C105.481 79.7887 104.78 79.5756 104.063 79.4318C103.857 78.7663 103.608 78.1146 103.319 77.4807C103.734 77.3098 104.192 77.274 104.629 77.3785C104.986 77.458 105.336 77.5489 105.682 77.6625C105.841 78.0563 105.986 78.4576 106.117 78.8666Z" fill="#171923"/>
<path d="M104.063 79.4315C104.78 79.5754 105.481 79.7885 106.156 80.0677C105.648 81.7575 102.705 82.1523 102.01 79.9995L101.993 79.9484C101.921 79.4493 102.011 78.9405 102.25 78.4963C102.489 78.0522 102.863 77.6962 103.319 77.4805C103.608 78.1144 103.857 78.7661 104.063 79.4315Z" fill="#171923"/>
<path d="M102.01 79.9999C102.706 82.1526 105.648 81.7578 106.157 80.068C106.888 80.371 107.588 80.7468 108.244 81.1898C109.462 82.0125 110.513 83.058 111.343 84.2712C111.752 83.625 112.122 82.9545 112.45 82.2634C114.323 84.5878 115.393 87.4563 115.5 90.4397C115.696 96.3696 111.911 101.763 106.395 103.813C104.123 104.665 101.763 104.634 99.3805 104.634H71.4264C68.3734 104.634 65.4624 104.248 62.6848 102.848C60.7783 101.863 59.0864 100.51 57.7076 98.8658C56.3288 97.2218 55.2906 95.3201 54.6533 93.2712H56.8912C56.3957 91.903 56.1178 90.4655 56.0676 89.0112C56.0676 88.8379 56.0676 88.6647 56.0676 88.4915C56.0676 84.7751 57.544 81.211 60.1718 78.5831C62.7997 75.9552 66.3638 74.4789 70.0802 74.4789C71.5466 74.4823 73.0036 74.7123 74.3998 75.1605C76.0389 72.6938 78.3082 70.7107 80.9721 69.4168C83.6361 68.1229 86.5978 67.5654 89.5499 67.8021C92.502 68.0389 95.337 69.0612 97.7608 70.7631C100.185 72.465 102.109 74.7844 103.334 77.4808C102.878 77.6965 102.503 78.0526 102.265 78.4967C102.026 78.9408 101.936 79.4497 102.007 79.9488C101.196 77.468 99.7372 75.2486 97.7817 73.5198C95.8262 71.7909 93.4448 70.6152 90.8832 70.1138C85.2742 69.0148 79.438 71.5537 76.2373 76.234C75.7119 77.0037 74.7832 77.5035 73.8318 77.2138C68.8817 75.703 63.3437 77.3019 60.3532 81.6556C59.1014 83.4371 58.3631 85.5283 58.2188 87.7009C58.0744 89.8735 58.5297 92.0439 59.5349 93.9754C60.54 95.9068 62.0564 97.5251 63.9186 98.6535C65.7807 99.7819 67.917 100.377 70.0944 100.374C71.4008 100.388 72.7072 100.374 74.0108 100.374H99.6986C101.482 100.374 103.206 100.431 104.927 99.8316C108.863 98.4599 111.394 94.5634 111.255 90.4397C111.104 85.9695 107.764 82.4281 103.501 81.4852C103.119 81.4237 102.767 81.2413 102.497 80.9647C102.226 80.6881 102.052 80.332 101.999 79.9488L102.01 79.9999Z" fill="#171923"/>
<path d="M100.601 56.7203C101.436 59.3416 97.3239 60.4549 96.4947 57.8563C96.4947 57.8364 96.4805 57.8166 96.4748 57.7967C96.2873 56.4676 97.3751 54.863 99.116 55.2407C99.471 55.3174 99.826 55.4054 100.178 55.502C100.329 55.8996 100.471 56.3057 100.601 56.7203Z" fill="#171923"/>
<path d="M97.9944 59.3388C97.609 59.2796 97.2534 59.0966 96.9813 58.8173C96.7092 58.5381 96.5355 58.1778 96.4863 57.791C96.4863 57.8109 96.5005 57.8308 96.5062 57.8507C97.3355 60.455 101.448 59.3417 100.613 56.7147C100.482 56.3 100.329 55.8939 100.19 55.4878C101.626 55.8798 103.013 56.4333 104.325 57.1378C111.038 60.7617 115.117 68.4098 114.265 76.004C114.024 78.1727 113.418 80.2851 112.473 82.252C111.529 81.0769 110.402 80.0614 109.136 79.2444C109.926 77.1313 110.24 74.8699 110.056 72.6215C109.502 66.0015 104.362 60.7106 97.9944 59.3388Z" fill="#171923"/>
<path d="M74.9509 73.1043C74.4851 72.9623 74.0165 72.843 73.5479 72.7407C75.6748 70.0949 78.4716 68.0671 81.6476 66.8684C84.8237 65.6697 88.2629 65.3439 91.6075 65.9247C98.0401 67.0238 103.311 71.6843 105.683 77.6483C105.336 77.5403 104.987 77.4495 104.629 77.3643C104.193 77.2598 103.734 77.2956 103.32 77.4665C102.095 74.7702 100.17 72.4507 97.7467 70.7488C95.3229 69.0469 92.4879 68.0246 89.5358 67.7878C86.5837 67.5511 83.622 68.1086 80.958 69.4025C78.2941 70.6964 76.0248 72.6796 74.3857 75.1462C73.7491 74.9389 73.0979 74.7794 72.4375 74.6691L72.5454 74.0699L74.9509 73.1043Z" fill="#171923"/>
<path d="M74.9504 73.1042L72.5449 74.084C72.863 73.6183 73.1972 73.1705 73.5474 72.7407C74.016 72.843 74.4846 72.9622 74.9504 73.1042Z" fill="#171923"/>
<path d="M56.891 93.2712H54.653C54.4229 92.5359 54.2501 91.7839 54.1362 91.022C54.0365 90.3559 53.9777 89.6844 53.9601 89.0112H56.0674C56.1175 90.4656 56.3954 91.903 56.891 93.2712Z" fill="#171923"/>
<path d="M55.5619 48.9613L53.1564 49.9382C53.4726 49.4725 53.8011 49.0162 54.1419 48.5693C54.619 48.6829 55.0904 48.8136 55.5619 48.9613Z" fill="#171923"/>
<path d="M96.4748 57.7909C95.2382 53.9664 92.9993 50.5433 89.991 47.8776C86.9827 45.2119 83.3149 43.4012 79.3695 42.6338C70.7274 40.9582 61.7444 44.8433 56.8341 52.0853C56.3115 52.855 55.3743 53.3605 54.4286 53.0651C52.4347 52.427 50.3506 52.1162 48.2573 52.145C43.4137 52.2644 38.8118 54.2859 35.4472 57.7722C32.0825 61.2585 30.2257 65.9293 30.2783 70.7741C30.3309 75.6189 32.2888 80.2482 35.7284 83.6605C39.1679 87.0729 43.8126 88.994 48.6577 89.0082C50.4242 89.0252 52.1907 89.0082 53.96 89.0082C53.9776 89.6814 54.0364 90.3529 54.1361 91.0189C54.25 91.7809 54.4228 92.5329 54.653 93.2682H50.8758C46.8089 93.2682 42.9238 92.8819 39.1466 91.1723C32.4214 88.1278 27.4145 81.5873 26.2785 74.2856C25.1113 66.7909 27.6446 59.0377 33.282 53.8859C36.0592 51.3616 39.413 49.5568 43.0497 48.6294C46.6863 47.7021 50.4948 47.6805 54.1418 48.5666C53.801 49.0134 53.4725 49.4697 53.1563 49.9355L55.5618 48.9585C55.0903 48.8108 54.6189 48.6745 54.1418 48.5666C57.7599 43.7416 62.9203 40.3001 68.7652 38.8142C74.6101 37.3283 80.7875 37.8875 86.2707 40.3987C92.7572 43.2955 97.7272 48.8847 100.187 55.4905C99.8345 55.3939 99.4795 55.3059 99.1245 55.2292C97.3751 54.8458 96.2902 56.4618 96.4748 57.7909Z" fill="#171923"/>
<path d="M53.9747 89.011C53.8976 86.6824 54.325 84.3647 55.2275 82.2166C56.1299 80.0686 57.4861 78.1411 59.2031 76.5662C61.1231 74.8425 63.4235 73.5972 65.9164 72.9319C68.4094 72.2666 71.0244 72.2001 73.5479 72.7379C73.1996 73.1657 72.8654 73.6135 72.5454 74.0812L72.4375 74.6804C71.6545 74.543 70.861 74.4746 70.0661 74.4759C66.3497 74.4759 62.7856 75.9523 60.1577 78.5801C57.5298 81.208 56.0535 84.7721 56.0535 88.4885C56.0535 88.6617 56.0535 88.835 56.0535 89.0082H53.9747V89.011Z" fill="#171923"/>
<path d="M54.1418 48.5694C50.4948 47.6833 46.6863 47.7049 43.0497 48.6322C39.413 49.5596 36.0592 51.3644 33.282 53.8887C27.6446 59.0405 25.1113 66.7937 26.2785 74.2884C27.4145 81.5901 32.4214 88.1306 39.1466 91.1751C42.9181 92.8791 46.8146 93.271 50.8758 93.271H54.653" stroke="#171923" stroke-miterlimit="10"/>
<path d="M54.1419 48.5693C54.619 48.6829 55.0904 48.8136 55.5619 48.9613L53.1564 49.9382C53.4726 49.4725 53.8011 49.0162 54.1419 48.5693Z" stroke="#171923" stroke-miterlimit="10"/>
<path d="M100.178 55.4934C97.7272 48.8876 92.7572 43.2985 86.2621 40.4017C80.78 37.8926 74.6044 37.3347 68.7614 38.8205C62.9183 40.3063 57.7594 43.7465 54.1417 48.5695" stroke="#171923" stroke-miterlimit="10"/>
<path d="M53.9738 89.0109C52.2045 89.0109 50.438 89.028 48.6715 89.0109C43.8264 88.9967 39.1817 87.0757 35.7422 83.6633C32.3026 80.2509 30.3447 75.6216 30.2921 70.7768C30.2395 65.932 32.0963 61.2613 35.4609 57.775C38.8256 54.2887 43.4274 52.2672 48.2711 52.1477C50.3644 52.119 52.4485 52.4297 54.4424 53.0679C55.3881 53.3519 56.3253 52.8577 56.8479 52.0881C61.7582 44.8461 70.7411 40.961 79.3833 42.6366C83.3284 43.4037 86.9959 45.214 90.0042 47.8792C93.0124 50.5443 95.2516 53.9669 96.4886 57.7908" stroke="#171923" stroke-miterlimit="10"/>
<path d="M96.4747 57.791C96.5239 58.1778 96.6976 58.538 96.9697 58.8173C97.2418 59.0966 97.5974 59.2796 97.9828 59.3388C104.361 60.7105 109.502 66.0015 110.041 72.6329C110.226 74.8813 109.911 77.1427 109.121 79.2557" stroke="#171923" stroke-miterlimit="10"/>
<path d="M112.459 82.2632C113.404 80.2963 114.01 78.1839 114.251 76.0152C115.103 68.421 111.027 60.7729 104.311 57.1491C102.999 56.4446 101.612 55.891 100.176 55.499" stroke="#171923" stroke-miterlimit="10"/>
<path d="M96.4745 57.791C96.4745 57.8109 96.4887 57.8308 96.4944 57.8506C97.3236 60.4549 101.436 59.3416 100.601 56.7146C100.47 56.3 100.317 55.8939 100.178 55.4878C99.8257 55.3912 99.4707 55.3032 99.1157 55.2265C97.3748 54.8459 96.2899 56.4619 96.4745 57.791Z" stroke="#171923" stroke-miterlimit="10"/>
<path d="M101.993 79.9484L102.01 79.9996C102.705 82.1523 105.648 81.7575 106.156 80.0677C106.267 79.6728 106.253 79.2531 106.116 78.8664C105.986 78.4574 105.841 78.0542 105.682 77.6566C103.31 71.6926 98.0393 67.0321 91.6067 65.933C88.262 65.3522 84.8228 65.678 81.6468 66.8767C78.4708 68.0754 75.6739 70.1032 73.5471 72.749M73.5471 72.749C73.1987 73.1769 72.8646 73.6247 72.5446 74.0924L74.9501 73.1126C74.4843 72.9706 74.0157 72.8513 73.5471 72.749ZM73.5471 72.749C71.0216 72.2085 68.404 72.2734 65.9084 72.9383C63.4128 73.6031 61.1099 74.8492 59.1881 76.5745C57.4748 78.1498 56.1219 80.0765 55.2219 82.2229C54.322 84.3693 53.8963 86.6847 53.9738 89.0109C53.9915 89.6841 54.0503 90.3556 54.1499 91.0216C54.2638 91.7836 54.4367 92.5356 54.6668 93.2709C55.303 95.3175 56.3394 97.2174 57.7156 98.8603C59.0919 100.503 60.7807 101.857 62.6841 102.842C65.4588 104.242 68.3641 104.628 71.4256 104.628H99.3883C101.771 104.628 104.123 104.656 106.403 103.807C111.918 101.757 115.704 96.3636 115.508 90.4337C115.401 87.4504 114.331 84.5818 112.458 82.2574C111.514 81.0823 110.387 80.0668 109.121 79.2498C108.054 78.5597 106.897 78.0215 105.682 77.6509C105.335 77.543 104.986 77.4521 104.628 77.3669C104.192 77.2624 103.734 77.2982 103.319 77.4691C102.863 77.6849 102.489 78.0409 102.25 78.485C102.011 78.9291 101.921 79.438 101.993 79.9371" stroke="#171923" stroke-miterlimit="10"/>
<path d="M101.993 79.9487C102.046 80.332 102.22 80.6881 102.491 80.9647C102.761 81.2413 103.113 81.4237 103.495 81.4852C107.755 82.4281 111.098 85.9695 111.248 90.4397C111.388 94.5634 108.857 98.4599 104.921 99.8316C103.2 100.431 101.476 100.374 99.6924 100.374H73.9961C72.6926 100.374 71.3862 100.388 70.0798 100.374C67.9024 100.377 65.7661 99.7818 63.9039 98.6535C62.0418 97.5251 60.5254 95.9068 59.5202 93.9754C58.5151 92.0439 58.0598 89.8734 58.2041 87.7009C58.3484 85.5283 59.0868 83.4371 60.3386 81.6556C63.3291 77.3019 68.8586 75.6916 73.8172 77.2138C74.7686 77.4978 75.6973 77.0037 76.2227 76.234C79.4234 71.5537 85.2596 69.0147 90.8686 70.1138C93.4301 70.6151 95.8115 71.7909 97.767 73.5197C99.7225 75.2486 101.181 77.4679 101.993 79.9487Z" stroke="#171923" stroke-miterlimit="10"/>
</svg>
